# xmcd CD database file
#
# Track frame offsets:
#	150
#	17409
#	35411
#	52361
#	70188
#	86227
#	105776
#	127603
#	148842
#	167762
#	185590
#	202689
#	222070
#	240108
#
# Disc length: 3794 seconds
#
# Revision: 2
# Processed by: cddbd v1.5.2PL0 Copyright (c) Steve Scherf et al.
# Submitted via: CDex 1.60beta1-cs1
#
DISCID=b20ed00e
DTITLE=Beccy Cole - Beccy's Big Hits
DYEAR=2013
DGENRE=Country
TTITLE0=This Heart
TTITLE1=Shiny Things
TTITLE2=Life Boat (Live)
TTITLE3=Mother Knows Best (ft. Carole Sturtzel)
TTITLE4=Too Strong to Break
TTITLE5=Waitress
TTITLE6=Blackwood Hill
TTITLE7=Sorry I Asked
TTITLE8=Clown Song
TTITLE9=Rainbows, Dreams and Butterflies
TTITLE10=Millionaires (ft. Kasey Chambers)
TTITLE11=Girls Out Here
TTITLE12=Poster Girl (Live)
TTITLE13=Lazy Bones (Live)
EXTD=YEAR: 2013
EXTT0=
EXTT1=
EXTT2=
EXTT3=
EXTT4=
EXTT5=
EXTT6=
EXTT7=
EXTT8=
EXTT9=
EXTT10=
EXTT11=
EXTT12=
EXTT13=
PLAYORDER=
